PathFileType	4	(X/Y/Z)	C:/Users/beibeiliu/ov580/test_trc/User3\sequence.35_training_dense_left.trc
DataRate	CameraRate	NumFrames	NumMarkers	Units	OrigDataRate	OrigDataStartFrame	OrigNumFrames
120	120	23	19	mm	120	56	83
Frame#	Time	ThumbCMC			ThumbMCP			ThumbIP			ThumbTip			IndexMCP			IndexPIP			IndexTip			MiddleMCP			MiddlePIP			MiddleTip			RingMCP			RingPIP			RingTip			PinkyMCP			PinkyPIP			PinkyTip			BackHand1			BackHand2			BackHand3	
		X0	Y0	Z0	X1	Y1	Z1	X2	Y2	Z2	X3	Y3	Z3	X4	Y4	Z4	X5	Y5	Z5	X6	Y6	Z6	X7	Y7	Z7	X8	Y8	Z8	X9	Y9	Z9	X10	Y10	Z10	X11	Y11	Z11	X12	Y12	Z12	X13	Y13	Z13	X14	Y14	Z14	X15	Y15	Z15	X16	Y16	Z16	X17	Y17	Z17	X18	Y18	Z18	
55	0.458333	-152.397	11.4268	20.257	-164.16	20.777	-7.07181	-170.65	20.0695	-34.2697	-174.415	21.0607	-59.6626	-161.763	-13.0564	-51.4496	-132.698	-5.70161	-69.6779	-107.828	3.57686	-52.2252	-152.77	-29.4808	-55.0055	-120.781	-18.7184	-65.9333	-99.9181	-12.5359	-36.3853	-145.463	-44.9691	-43.5535	-110.649	-36.9308	-50.6614	-100.84	-23.0791	-25.3533	-135.697	-62.0578	-34.3604	-114.048	-49.7814	-44.3353	-97.785	-32.8304	-19.3332	-166.93	-46.0472	9.1953	-161.607	-42.225	37.4316	-173.463	-13.9477	21.2122	
56	0.466667	-156.964	13.1087	19.4968	-169.365	23.2813	-4.57471	-179.226	25.7573	-32.8945	-181.098	25.8762	-54.8485	-164.691	-11.7313	-54.2694	-137.858	-4.59398	-71.2842	-112.887	4.79112	-56.0743	-155.021	-30.5042	-56.6255	-122.729	-22.2609	-64.8357	-102.673	-13.986	-33.0362	-147.472	-46.0845	-42.8914	-114.107	-37.7631	-49.9372	-104.948	-20.8988	-23.7717	-140.853	-60.4112	-31.1276	-117.318	-51.0487	-43.9504	-99.7761	-34.3366	-21.2649	-170.131	-50.5207	6.57214	-163.243	-44.6317	41.1722	-174.443	-12.1355	16.7939	
57	0.475	-152.577	14.2116	22.6391	-165.467	23.1628	-1.99068	-175.243	22.8173	-33.0219	-177.528	22.5532	-54.5228	-162.168	-9.50546	-55.9212	-135.668	-6.06626	-71.3339	-111.178	4.62541	-53.5975	-154.421	-30.2299	-56.2812	-125.837	-22.7012	-66.768	-102.707	-12.0971	-32.0872	-144.427	-43.5149	-47.2903	-115.008	-34.8955	-52.5311	-103.744	-22.1639	-26.7852	-138.867	-60.1519	-32.6671	-111.946	-49.8203	-42.7627	-97.4461	-34.2424	-22.6506	-166.747	-47.3908	8.82266	-163.525	-38.886	38.4578	-173.156	-11.9514	19.631	
58	0.483333	-152.564	18.5007	21.977	-162.589	22.8662	-5.11175	-170.602	23.6927	-32.9039	-172.698	17.4961	-58.577	-164.114	-9.94565	-53.0683	-137.937	-5.54008	-72.0501	-110.159	4.6124	-51.2025	-155.092	-29.9754	-53.6147	-121.595	-19.8334	-64.5277	-102.893	-9.7088	-31.9934	-145.969	-44.793	-44.2661	-114.588	-35.7217	-51.263	-103.985	-21.8267	-26.5993	-137.5	-60.2922	-33.2729	-114.443	-48.4177	-43.4943	-100.008	-31.2696	-19.7983	-168.262	-43.2421	6.19326	-160.381	-40.1875	39.7948	-172.91	-12.5578	18.4103	
59	0.491667	-150.826	18.8651	20.4759	-156.897	22.7557	-9.60933	-161.686	21.4435	-38.5623	-160.435	10.8135	-62.4274	-164.653	-8.78325	-57.0217	-137.023	-1.27811	-72.2095	-114.868	2.95661	-54.44	-155.539	-31.1153	-56.3924	-127.23	-21.1619	-66.835	-106.509	-14.0997	-33.5976	-145.81	-45.2955	-46.6207	-116.509	-33.9448	-50.6892	-107.547	-21.9338	-19.9245	-139.512	-60.546	-30.6029	-112.489	-47.5672	-40.2809	-105.595	-33.2378	-19.6077	-167.846	-47.7576	11.5846	-162.69	-42.5253	39.8557	-175.026	-8.99208	18.4288	
60	0.5	-148.8	18.1381	18.1388	-146.301	22.7545	-12.3838	-145.4	23.7807	-46.6613	-141.102	14.793	-65.7257	-164.15	-10.0264	-52.5813	-136.561	-6.17781	-72.7213	-109.741	1.3857	-49.808	-155.943	-27.6072	-57.2769	-126.053	-23.0295	-66.8126	-106.696	-9.4178	-30.4735	-145.385	-46.0804	-46.8554	-114.637	-38.3082	-49.8623	-108.088	-23.0705	-23.0198	-138.619	-59.5046	-32.971	-112.303	-50.5771	-39.8665	-102.872	-33.9397	-16.9451	-169.826	-45.7045	4.92658	-163.482	-40.5277	39.2376	-172.236	-14.3744	17.2277	
61	0.508333	-144.105	20.4448	15.6628	-134.376	29.1188	-12.783	-127.451	34.0363	-41.6723	-120.533	29.3284	-67.0695	-159.438	-8.86384	-53.9855	-130.637	-4.28921	-73.6608	-106.081	6.00575	-53.0805	-150.378	-25.5314	-59.5906	-118.585	-20.9973	-65.6566	-103.535	-10.6586	-31.0132	-141.642	-45.9477	-46.5711	-111.85	-35.7331	-51.5573	-105.073	-25.0731	-19.5174	-133.496	-60.7804	-36.1608	-108.457	-47.2976	-39.7823	-104.548	-31.6754	-16.127	-167.118	-45.0934	2.42067	-162.556	-40.2589	33.7444	-172.584	-6.87382	17.0304	
62	0.516667	-139.746	22.7063	17.6917	-129.969	32.7025	-13.4334	-121.874	38.7699	-36.9069	-114.515	35.4354	-64.0091	-153.781	-1.24773	-58.0454	-127.249	3.16625	-74.807	-100.485	5.72847	-51.2251	-147.477	-20.1936	-59.1496	-113.836	-13.423	-67.0112	-97.7917	-11.0946	-32.783	-137.17	-39.9084	-49.967	-108.8	-31.0907	-53.9914	-101.74	-21.0147	-19.8078	-132.544	-55.418	-37.1206	-105.717	-45.1689	-41.3988	-98.9345	-29.8681	-14.5251	-166.279	-38.4197	5.37438	-160.925	-35.1616	32.8967	-167.857	-5.24835	14.9204	
63	0.525	-140.494	22.3637	17.5022	-134.475	34.8098	-10.9354	-129.542	40.1196	-38.3322	-122.388	35.0695	-63.6826	-153.158	2.22347	-57.0531	-123.899	6.91848	-73.7097	-99.7458	11.2001	-51.2323	-144.932	-18.5322	-60.8562	-115.201	-11.0839	-68.8766	-97.0097	-4.10037	-33.3161	-138.369	-36.0707	-48.5283	-106.855	-27.0963	-53.497	-99.0182	-19.4851	-22.4187	-133.883	-51.103	-36.8455	-105.242	-43.7167	-43.8473	-99.2083	-25.1582	-19.0134	-164.166	-36.079	2.9067	-159.998	-39.7675	34.6504	-168.943	-3.97987	12.9742	
64	0.533333	-143.991	17.9137	14.8503	-136.671	31.8574	-11.6493	-134.522	34.9436	-46.6297	-127.208	26.7465	-65.8755	-154.187	-0.537394	-60.1953	-124.579	6.17068	-74.787	-102.952	12.6503	-55.6196	-147.675	-18.0904	-61.7672	-113.678	-12.4366	-67.8029	-97.5647	-6.15274	-32.8319	-137.136	-39.3443	-51.9489	-107.844	-29.5054	-54.4979	-101.339	-16.8797	-23.0005	-133.245	-50.7543	-38.9727	-106.187	-42.083	-45.1702	-96.9548	-29.7929	-19.0678	-165.286	-40.3324	1.77451	-159.857	-38.8786	32.0492	-168.388	-5.73114	12.5133	
65	0.541667	-141.63	18.4302	13.1453	-132.196	28.9604	-18.2865	-122.978	32.45	-42.0761	-116.575	27.1438	-66.6538	-156.383	-0.309961	-57.4561	-125.763	2.29503	-76.6164	-98.6939	8.43116	-57.7951	-146.559	-19.0704	-62.7295	-113.01	-16.9084	-68.3674	-95.8973	-11.1094	-37.0243	-137.55	-35.6775	-52.9227	-106.87	-29.7848	-53.5148	-100.172	-20.8586	-22.947	-132.019	-51.8712	-41.9139	-105.48	-46.5158	-43.8129	-99.6303	-27.0516	-20.9952	-165.098	-39.7185	2.27783	-163.793	-41.813	28.8759	-169.815	-8.53985	12.5269	
66	0.55	-135.317	23.1262	13.1469	-121.74	34.8746	-13.2714	-111.432	36.8696	-42.0904	-101.886	33.4345	-65.267	-154.465	5.58286	-57.446	-128.276	5.77681	-81.1453	-98.0697	8.64261	-66.835	-144.528	-17.2586	-64.0792	-114.754	-12.3552	-73.6318	-93.3113	-10.8754	-36.8173	-137.813	-34.4379	-54.2638	-106.906	-34.0621	-56.9831	-96.9498	-22.7251	-28.9727	-136.707	-52.1197	-39.9371	-109.715	-45.2186	-47.3934	-98.1231	-35.8941	-20.7413	-166.918	-33.5921	1.03028	-162.709	-36.1063	27.5442	-167.426	-1.74708	12.1551	
67	0.558333	-122.215	28.4889	15.1787	-106.285	35.469	-9.70517	-95.4086	41.2388	-39.2517	-90.3036	31.0141	-63.0727	-146.061	15.4959	-56.7775	-125.505	12.7365	-82.8218	-94.063	6.19321	-77.0717	-143.472	-5.132	-63.2156	-113.001	-12.0069	-76.0245	-91.2953	-19.1708	-46.3344	-143.109	-23.7845	-55.9355	-112.019	-31.4607	-61.4227	-98.4339	-27.3372	-33.2516	-143.833	-41.9782	-45.9235	-116.798	-45.0192	-51.6012	-104.037	-37.4957	-24.7706	-168.911	-18.3127	-0.727139	-164.433	-20.4897	25.3307	-158.098	12.5172	11.2842	
68	0.566667	-99.9841	24.6784	20.0311	-81.948	27.948	-5.06989	-72.633	29.0487	-30.6615	-65.6807	24.1816	-56.9946	-125.082	32.1524	-56.8635	-111.067	20.5062	-86.1139	-92.2648	-1.47084	-86.8921	-137.008	15.2949	-64.0611	-118.366	-2.32951	-83.4246	-94.5892	-25.2274	-63.0381	-145.329	-0.686747	-55.5889	-126.216	-21.7714	-71.8139	-109.371	-37.2811	-49.4797	-157.818	-20.47	-45.7648	-136.158	-32.6091	-60.8012	-115.602	-39.7762	-41.7697	-161.441	8.52902	-4.05612	-164.654	2.82747	26.0535	-138.892	27.2243	11.3926	
69	0.575	-92.1571	16.2539	21.2675	-71.1612	16.7924	-4.47146	-55.8644	16.5738	-28.6787	-48.2247	10.2692	-50.4745	-103.415	36.4297	-56.9241	-98.228	23.503	-87.002	-90.779	-1.66138	-97.0714	-127.627	27.444	-66.9531	-120.365	10.6899	-90.4025	-105.723	-26.8506	-84.7379	-145.55	15.2564	-57.5718	-139.826	-2.7917	-80.8925	-123.073	-30.4709	-72.1165	-162.242	2.93822	-46.34	-152.316	-12.444	-67.4988	-137.285	-35.3437	-62.6135	-153.073	26.2362	-1.06848	-156.606	21.0035	28.4004	-122.682	34.2786	11.7756	
70	0.583333	-85.2877	11.7075	19.9028	-69.0971	7.43216	-2.27899	-48.8276	3.82713	-25.8441	-39.3505	-1.76199	-47.0872	-95.3424	31.9232	-58.7745	-89.3173	25.7385	-85.5121	-91.1723	-0.271506	-108.214	-120.068	32.0567	-64.9523	-121.237	20.2385	-94.2309	-113.943	-13.6601	-108.065	-144.346	25.5464	-57.1417	-141.813	10.5594	-87.5779	-137.885	-21.6013	-94.2965	-164.635	15.3771	-46.5702	-167.755	3.08158	-68.3226	-153.42	-22.8544	-78.4241	-146.699	33.5639	-5.75865	-144.997	30.4441	25.2721	-113.7	34.0855	9.74761	
71	0.591667	-84.5187	6.88931	14.23	-64.7756	-0.609532	0.208213	-48.6356	-5.84986	-24.8915	-33.3294	-13.494	-42.7528	-99.3527	24.1788	-62.1573	-91.09	18.6634	-90.8494	-90.7452	2.80294	-115.16	-121.637	29.5654	-66.4855	-120.087	21.65	-96.711	-121.714	-3.97793	-124.892	-143.027	23.8162	-61.386	-147.351	18.452	-85.3784	-150.176	-6.8099	-110.52	-165.614	14.9819	-41.7181	-171.553	8.31866	-68.5161	-170.848	-10.8872	-89.5891	-143.568	32.1874	-9.31462	-144.311	31.9639	21.5529	-108.012	30.5017	4.54087	
72	0.6	-86.5357	-0.63567	17.2046	-67.5735	-7.81612	-2.09249	-46.6621	-13.7785	-23.5692	-36.2436	-20.977	-42.1135	-101.646	17.3295	-63.477	-95.826	15.2809	-89.9494	-91.1897	5.87058	-114.374	-128.133	22.5629	-70.4693	-129.432	17.1404	-99.6753	-129.693	4.09056	-127.812	-149.616	17.753	-60.9058	-152.656	14.816	-87.9325	-156.354	2.03444	-114.629	-166.507	10.0301	-43.0097	-178.423	6.36569	-65.2466	-186.952	-3.93336	-88.4725	-146.962	28.1476	-7.10866	-144.194	27.9732	23.7013	-113.029	24.0966	4.5922	
73	0.608333	-91.4502	-7.04286	15.303	-73.7548	-14.2034	-7.86926	-52.4256	-22.3495	-29.8734	-37.844	-30.6109	-40.3934	-105.273	7.58268	-62.4711	-97.4965	6.46261	-90.878	-98.9611	0.336439	-118.272	-130.813	12.8818	-69.1981	-134.507	10.1796	-95.7455	-137.415	0.304885	-130.576	-152.849	9.43286	-58.885	-158.322	6.23864	-87.5954	-166.092	-0.618205	-113.726	-173.588	3.49482	-45.3236	-186.375	-0.0931154	-63.5313	-190.573	-6.64326	-87.8451	-146.806	19.7439	-10.5328	-151.115	21.6423	18.4846	-116.69	16.8323	0.620659	
74	0.616667	-94.7193	-9.56722	12.2816	-71.8564	-17.6874	-7.22891	-54.5051	-26.2853	-31.729	-39.0975	-33.6374	-41.3608	-109.74	3.18288	-63.9393	-104.504	2.8277	-91.2501	-99.4214	-2.76476	-117.147	-135.174	8.69137	-71.6671	-138.942	4.37925	-97.1379	-138.503	-3.66978	-127.329	-155.067	3.95666	-57.6047	-165.292	2.19886	-86.7234	-170.186	-5.01876	-107.132	-178.412	-2.17377	-41.6251	-185.445	-5.46009	-59.3662	-193.891	-9.71728	-83.1653	-153.204	13.9368	-6.45994	-147.491	19.0772	20.7131	-117.105	13.3708	0.967294	
75	0.625	-90.6149	-8.06694	11.7661	-73.1389	-17.0892	-8.41056	-53.5759	-23.4006	-28.0633	-39.8909	-32.4178	-42.3271	-112.146	5.81918	-63.6377	-105.803	3.63346	-93.377	-98.78	-1.87434	-116.729	-135.25	9.34113	-69.3531	-139.964	5.41018	-96.8209	-141.908	-5.50014	-129.934	-159.327	3.9093	-58.7352	-162.001	2.07004	-84.4042	-172.395	-6.53811	-112.016	-175.454	-3.88637	-39.7053	-188.221	-5.73599	-58.5532	-193.429	-9.51289	-82.6709	-149.097	14.752	-11.5124	-147.372	18.4826	22.8012	-119.041	15.7328	3.86456	
76	0.633333	-88.8219	-6.70277	10.1536	-70.5284	-14.6892	-6.50551	-55.4908	-21.8751	-30.3082	-37.6247	-28.9821	-43.0587	-105.798	6.14343	-60.6564	-100.116	5.48905	-90.3508	-100.82	-0.256557	-114.909	-134.943	10.7835	-70.5849	-139.829	6.93301	-96.8889	-139.042	-3.57022	-126.237	-154.306	5.09276	-57.8561	-165.119	2.33964	-84.8817	-171.243	-6.16391	-107.185	-177.289	-2.16995	-40.642	-186.627	-5.32197	-58.2326	-195.293	-9.37297	-84.2187	-149.264	14.762	-5.98785	-151.678	19.7292	19.7187	-118.811	17.2065	0.106782	
77	0.641667	-92.0171	-6.0078	13.7675	-72.2187	-13.424	-7.3662	-51.5254	-20.8583	-27.8914	-38.4472	-27.5211	-41.5741	-107.927	7.70234	-60.8341	-100.579	6.88062	-89.8502	-99.5431	1.20021	-116.434	-132.061	11.5657	-68.0019	-135.113	7.19092	-94.0779	-140.57	-4.4361	-124.737	-155.18	5.10649	-58.4786	-163.886	1.52741	-84.5925	-169.526	-6.37317	-109.898	-173.783	-0.869983	-41.8938	-184.123	-4.92228	-61.0467	-189.939	-10.946	-80.3187	-150.048	18.6375	-7.22084	-149.67	19.0059	22.7239	-118.44	18.1481	1.78319	
